<?xml version="1.0" encoding="utf-8"?>
<!-- Generator: Adobe Illustrator 25.2.3, SVG Export Plug-In . SVG Version: 6.00 Build 0)  -->
<svg version="1.1" viewBox="0 0 1920 1080" preserveAspectRatio="xMinYMin meet" class="svg-content">
<style type="text/css">
	.st0{opacity:0.4;fill:#FFFFFF;}
	.st1{opacity:0.5;fill:#FF0000;}
	.st2{opacity:0.5;fill:#00FF00;}
</style>
<image style="overflow:visible;enable-background:new    ;" width="1921" height="1081" xlink:href="cuerditas.png"  transform="matrix(1 0 0 1 -1.03 -0.56)">
</image>
<rect x="28.3" y="12.8" class="st0" width="1421.8" height="215.6"/>
<rect x="28" y="237.3" class="st0" width="462.4" height="437.2"/>
<rect x="1461.5" y="206.9" class="st0" width="440" height="849.8"/>
<rect x="1599" y="11.3" class="st0" width="299.8" height="182.9"/>
<rect x="1456.6" y="11.5" class="st0" width="136.4" height="98.5"/>
<rect x="503.3" y="237.7" class="st0" width="719.5" height="816.2"/>
<rect x="1236.8" y="238" class="st0" width="212.4" height="816"/>
<rect x="26.8" y="820.6" class="st0" width="467.2" height="231.8"/>
<rect x="28.3" y="683.8" class="st0" width="282.3" height="127.3"/>
<rect x="430.9" y="684.4" class="st0" width="62.3" height="127.3"/>
<circle class="st1" cx="373.5" cy="750.8" r="54.3"/>
<path class="st2" d="M1581,145.4c-3.5-19.9-54-36.5-84.6-18.1c-1.5,0.9-25.2,15.5-22.7,35.5c2,15.9,19.4,25.6,31,28.7
	C1539.7,200.8,1584.6,166,1581,145.4z"/>
</svg>
